<svg xmlns="http://www.w3.org/2000/svg" xmlns:xlink="http://www.w3.org/1999/xlink" width="500" zoomAndPan="magnify" viewBox="0 0 375 374.999991" height="500" preserveAspectRatio="xMidYMid meet" version="1.0"><defs><g/><clipPath id="008637d277"><path d="M 136.1875 97.757812 L 238.9375 97.757812 L 238.9375 205.757812 L 136.1875 205.757812 Z M 136.1875 97.757812 " clip-rule="nonzero"/></clipPath></defs><rect x="-37.5" width="450" fill="#ffffff" y="-37.499999" height="449.999989" fill-opacity="1"/><rect x="-37.5" width="450" fill="#ffffff" y="-37.499999" height="449.999989" fill-opacity="1"/><g clip-path="url(#008637d277)"><path fill="#00a6ff" d="M 153.09375 115.703125 L 187.742188 97.757812 L 238.785156 123.28125 L 238.785156 135.96875 L 188.523438 126.332031 L 153.09375 132.816406 Z M 153.09375 187.679688 L 187.742188 205.628906 L 238.785156 180.105469 L 238.785156 167.417969 L 188.523438 177.054688 L 153.09375 170.574219 Z M 136.214844 157.984375 L 187.386719 166.910156 L 222.882812 160.375 L 222.882812 143.871094 L 187.746094 137.011719 L 136.214844 146.214844 Z M 136.214844 157.984375 " fill-opacity="1" fill-rule="nonzero"/></g><g fill="#00a6ff" fill-opacity="1"><g transform="translate(112.140627, 251.64385)"><g><path d="M 2.5625 -24.078125 L 14.671875 -24.078125 C 17.023438 -24.078125 18.785156 -23.570312 19.953125 -22.5625 C 21.117188 -21.5625 21.703125 -20.050781 21.703125 -18.03125 C 21.703125 -16.320312 21.367188 -15.03125 20.703125 -14.15625 C 20.035156 -13.28125 18.96875 -12.679688 17.5 -12.359375 L 17.5 -12.21875 C 19.082031 -11.863281 20.210938 -11.265625 20.890625 -10.421875 C 21.566406 -9.585938 21.90625 -8.25 21.90625 -6.40625 C 21.90625 -4.28125 21.335938 -2.679688 20.203125 -1.609375 C 19.078125 -0.535156 17.21875 0 14.625 0 L 2.5625 0 Z M 12.453125 -14.484375 C 13.316406 -14.484375 13.957031 -14.546875 14.375 -14.671875 C 14.800781 -14.804688 15.09375 -15.035156 15.25 -15.359375 C 15.414062 -15.691406 15.5 -16.179688 15.5 -16.828125 C 15.5 -17.503906 15.421875 -18.003906 15.265625 -18.328125 C 15.117188 -18.660156 14.84375 -18.882812 14.4375 -19 C 14.03125 -19.125 13.367188 -19.1875 12.453125 -19.1875 L 8.609375 -19.1875 L 8.609375 -14.484375 Z M 12.640625 -4.90625 C 13.523438 -4.90625 14.175781 -4.96875 14.59375 -5.09375 C 15.007812 -5.21875 15.300781 -5.441406 15.46875 -5.765625 C 15.632812 -6.097656 15.71875 -6.613281 15.71875 -7.3125 C 15.71875 -8.039062 15.640625 -8.578125 15.484375 -8.921875 C 15.335938 -9.273438 15.046875 -9.515625 14.609375 -9.640625 C 14.179688 -9.765625 13.523438 -9.828125 12.640625 -9.828125 L 8.609375 -9.828125 L 8.609375 -4.90625 Z M 12.640625 -4.90625 "/></g></g></g><g fill="#00a6ff" fill-opacity="1"><g transform="translate(139.330277, 251.64385)"><g><path d="M 2.5625 0 L 2.5625 -24.078125 L 8.640625 -24.078125 L 8.640625 -5.1875 L 18.203125 -5.1875 L 18.203125 0 Z M 2.5625 0 "/></g></g></g><g fill="#00a6ff" fill-opacity="1"><g transform="translate(161.830985, 251.64385)"><g><path d="M 12.390625 0.28125 C 9.003906 0.28125 6.59375 -0.0703125 5.15625 -0.78125 C 3.726562 -1.5 2.832031 -2.640625 2.46875 -4.203125 C 2.101562 -5.765625 1.921875 -8.378906 1.921875 -12.046875 C 1.921875 -15.703125 2.101562 -18.3125 2.46875 -19.875 C 2.832031 -21.4375 3.726562 -22.570312 5.15625 -23.28125 C 6.59375 -24 9.003906 -24.359375 12.390625 -24.359375 C 15.773438 -24.359375 18.179688 -24 19.609375 -23.28125 C 21.046875 -22.570312 21.9375 -21.4375 22.28125 -19.875 C 22.632812 -18.3125 22.8125 -15.703125 22.8125 -12.046875 C 22.8125 -8.378906 22.632812 -5.765625 22.28125 -4.203125 C 21.9375 -2.640625 21.046875 -1.5 19.609375 -0.78125 C 18.179688 -0.0703125 15.773438 0.28125 12.390625 0.28125 Z M 12.390625 -4.65625 C 13.910156 -4.65625 14.925781 -4.773438 15.4375 -5.015625 C 15.945312 -5.265625 16.269531 -5.832031 16.40625 -6.71875 C 16.550781 -7.601562 16.625 -9.378906 16.625 -12.046875 C 16.625 -14.703125 16.550781 -16.472656 16.40625 -17.359375 C 16.269531 -18.242188 15.945312 -18.804688 15.4375 -19.046875 C 14.925781 -19.296875 13.910156 -19.421875 12.390625 -19.421875 C 10.867188 -19.421875 9.835938 -19.296875 9.296875 -19.046875 C 8.765625 -18.804688 8.425781 -18.226562 8.28125 -17.3125 C 8.144531 -16.40625 8.078125 -14.648438 8.078125 -12.046875 C 8.078125 -9.429688 8.144531 -7.664062 8.28125 -6.75 C 8.425781 -5.84375 8.765625 -5.265625 9.296875 -5.015625 C 9.835938 -4.773438 10.867188 -4.65625 12.390625 -4.65625 Z M 12.390625 -4.65625 "/></g></g></g><g fill="#00a6ff" fill-opacity="1"><g transform="translate(190.070401, 251.64385)"><g><path d="M 18.578125 -0.3125 C 17.785156 -0.144531 16.789062 -0.00390625 15.59375 0.109375 C 14.394531 0.222656 13.269531 0.28125 12.21875 0.28125 C 9.1875 0.28125 6.945312 -0.0859375 5.5 -0.828125 C 4.050781 -1.578125 3.09375 -2.789062 2.625 -4.46875 C 2.15625 -6.15625 1.921875 -8.679688 1.921875 -12.046875 C 1.921875 -15.359375 2.160156 -17.851562 2.640625 -19.53125 C 3.117188 -21.207031 4.082031 -22.429688 5.53125 -23.203125 C 6.976562 -23.972656 9.207031 -24.359375 12.21875 -24.359375 C 13.269531 -24.359375 14.378906 -24.289062 15.546875 -24.15625 C 16.710938 -24.03125 17.675781 -23.875 18.4375 -23.6875 L 18.4375 -19.078125 C 16.0625 -19.304688 14.488281 -19.421875 13.71875 -19.421875 C 11.800781 -19.421875 10.484375 -19.273438 9.765625 -18.984375 C 9.046875 -18.691406 8.582031 -18.082031 8.375 -17.15625 C 8.175781 -16.238281 8.078125 -14.535156 8.078125 -12.046875 C 8.078125 -9.546875 8.175781 -7.832031 8.375 -6.90625 C 8.582031 -5.988281 9.046875 -5.382812 9.765625 -5.09375 C 10.484375 -4.800781 11.800781 -4.65625 13.71875 -4.65625 C 15.445312 -4.65625 17.066406 -4.769531 18.578125 -5 Z M 18.578125 -0.3125 "/></g></g></g><g fill="#00a6ff" fill-opacity="1"><g transform="translate(213.655871, 251.64385)"><g><path d="M 16.96875 0 L 10.15625 -9.796875 L 8.640625 -9.796875 L 8.640625 0 L 2.5625 0 L 2.5625 -24.078125 L 8.640625 -24.078125 L 8.640625 -14.703125 L 10.15625 -14.703125 L 17.046875 -24.078125 L 23.734375 -24.078125 L 15.015625 -12.671875 L 23.828125 0 Z M 16.96875 0 "/></g></g></g><g fill="#00a6ff" fill-opacity="1"><g transform="translate(241.160451, 251.64385)"><g><path d="M 11.375 0.28125 C 7.96875 0.28125 4.945312 0.0820312 2.3125 -0.3125 L 2.3125 -5.078125 C 5.15625 -4.796875 7.554688 -4.65625 9.515625 -4.65625 C 10.660156 -4.65625 11.535156 -4.703125 12.140625 -4.796875 C 12.753906 -4.890625 13.1875 -5.039062 13.4375 -5.25 C 13.675781 -5.4375 13.820312 -5.660156 13.875 -5.921875 C 13.9375 -6.191406 13.96875 -6.570312 13.96875 -7.0625 C 13.96875 -7.644531 13.921875 -8.066406 13.828125 -8.328125 C 13.734375 -8.585938 13.546875 -8.769531 13.265625 -8.875 C 12.984375 -8.976562 12.492188 -9.078125 11.796875 -9.171875 L 7.34375 -9.734375 C 5.757812 -9.921875 4.550781 -10.320312 3.71875 -10.9375 C 2.894531 -11.550781 2.335938 -12.347656 2.046875 -13.328125 C 1.753906 -14.316406 1.609375 -15.546875 1.609375 -17.015625 C 1.609375 -19.085938 1.992188 -20.660156 2.765625 -21.734375 C 3.535156 -22.804688 4.566406 -23.507812 5.859375 -23.84375 C 7.160156 -24.1875 8.8125 -24.359375 10.8125 -24.359375 C 12.28125 -24.359375 13.625 -24.300781 14.84375 -24.1875 C 16.070312 -24.070312 17.410156 -23.882812 18.859375 -23.625 L 18.859375 -18.96875 C 16.085938 -19.269531 13.816406 -19.421875 12.046875 -19.421875 C 10.171875 -19.421875 8.957031 -19.28125 8.40625 -19 C 8.09375 -18.863281 7.894531 -18.664062 7.8125 -18.40625 C 7.738281 -18.15625 7.703125 -17.796875 7.703125 -17.328125 C 7.703125 -16.742188 7.738281 -16.328125 7.8125 -16.078125 C 7.894531 -15.835938 8.070312 -15.664062 8.34375 -15.5625 C 8.613281 -15.457031 9.085938 -15.359375 9.765625 -15.265625 L 14.875 -14.625 C 15.90625 -14.507812 16.75 -14.300781 17.40625 -14 C 18.070312 -13.695312 18.628906 -13.179688 19.078125 -12.453125 C 19.753906 -11.453125 20.09375 -9.859375 20.09375 -7.671875 C 20.09375 -5.378906 19.726562 -3.65625 19 -2.5 C 18.28125 -1.34375 17.3125 -0.585938 16.09375 -0.234375 C 14.882812 0.109375 13.3125 0.28125 11.375 0.28125 Z M 11.375 0.28125 "/></g></g></g></svg>